<svg xmlns="http://www.w3.org/2000/svg" width="1920" height="1080" viewBox="0 0 1920 1080" preserveAspectRatio="xMidYMid slice">
  <defs>
    <radialGradient id="g" cx="50%" cy="50%" r="70%">
      <stop offset="0%" stop-color="#0b0b12"/>
      <stop offset="50%" stop-color="#07070b"/>
      <stop offset="100%" stop-color="#000000"/>
    </radialGradient>
    <radialGradient id="pinkNebula" cx="80%" cy="10%" r="40%">
      <stop offset="0%" stop-color="#ff4081" stop-opacity="0.15"/>
      <stop offset="100%" stop-color="#ff4081" stop-opacity="0"/>
    </radialGradient>
    <radialGradient id="blueNebula" cx="20%" cy="20%" r="35%">
      <stop offset="0%" stop-color="#b3e5fc" stop-opacity="0.08"/>
      <stop offset="100%" stop-color="#90caf9" stop-opacity="0"/>
    </radialGradient>
    <filter id="glow" x="-50%" y="-50%" width="200%" height="200%">
      <feGaussianBlur stdDeviation="1.2" result="blur"/>
      <feMerge>
        <feMergeNode in="blur"/>
        <feMergeNode in="SourceGraphic"/>
      </feMerge>
    </filter>
  </defs>
  <rect width="100%" height="100%" fill="url(#g)"/>
  <rect width="100%" height="100%" fill="url(#pinkNebula)"/>
  <rect width="100%" height="100%" fill="url(#blueNebula)"/>
  <g fill="#ffffff" opacity="0.9" filter="url(#glow)">
    <!-- Random stars -->
    <circle cx="150" cy="120" r="0.8"/>
    <circle cx="320" cy="240" r="0.7"/>
    <circle cx="540" cy="80" r="1"/>
    <circle cx="880" cy="160" r="0.9"/>
    <circle cx="1200" cy="220" r="0.7"/>
    <circle cx="1500" cy="100" r="1.1"/>
    <circle cx="1780" cy="180" r="0.8"/>
    <circle cx="200" cy="380" r="0.8"/>
    <circle cx="460" cy="420" r="0.7"/>
    <circle cx="720" cy="360" r="0.9"/>
    <circle cx="980" cy="420" r="0.8"/>
    <circle cx="1260" cy="380" r="1"/>
    <circle cx="1540" cy="420" r="0.7"/>
    <circle cx="1820" cy="380" r="0.9"/>
    <circle cx="100" cy="700" r="1"/>
    <circle cx="360" cy="760" r="0.9"/>
    <circle cx="640" cy="700" r="0.7"/>
    <circle cx="900" cy="760" r="0.8"/>
    <circle cx="1180" cy="720" r="1.1"/>
    <circle cx="1460" cy="780" r="0.8"/>
    <circle cx="1740" cy="740" r="0.7"/>
    <circle cx="250" cy="960" r="0.9"/>
    <circle cx="520" cy="980" r="0.7"/>
    <circle cx="800" cy="940" r="1"/>
    <circle cx="1080" cy="980" r="0.9"/>
    <circle cx="1360" cy="940" r="0.8"/>
    <circle cx="1640" cy="980" r="0.7"/>
  </g>
</svg>
